<?xml version="1.0" standalone="no"?>
<!DOCTYPE svg PUBLIC "-//W3C//DTD SVG 20010904//EN"
 "http://www.w3.org/TR/2001/REC-SVG-20010904/DTD/svg10.dtd">
<svg version="1.0" xmlns="http://www.w3.org/2000/svg"
 width="1365.000000pt" height="1366.000000pt" viewBox="0 0 1365.000000 1366.000000"
 preserveAspectRatio="xMidYMid meet">
<metadata>
Created by potrace 1.16, written by Peter Selinger 2001-2019
</metadata>
<g transform="translate(0.000000,1366.000000) scale(0.100000,-0.100000)"
fill="#000000" stroke="none">
<path d="M0 6830 l0 -6830 6825 0 6825 0 0 6830 0 6830 -6825 0 -6825 0 0
-6830z m7578 6553 c12 -3 25 -9 28 -14 3 -5 13 -9 23 -9 10 0 30 -14 45 -31
20 -22 33 -28 47 -24 24 8 186 -70 200 -97 5 -10 18 -18 29 -18 11 0 36 -9 57
-21 38 -22 230 -155 249 -174 6 -5 28 -23 49 -40 75 -58 268 -251 340 -340
128 -158 263 -367 327 -505 121 -260 180 -444 223 -690 19 -110 20 -106 -15
-122 -30 -13 -67 -79 -55 -99 14 -21 34 -6 54 43 31 74 30 75 52 -137 25 -245
-41 -695 -141 -971 -36 -98 -36 -92 7 -99 201 -33 221 -40 255 -94 15 -25 28
-58 28 -73 0 -31 6 -33 45 -18 25 9 58 66 49 82 -3 5 6 8 20 8 14 0 28 -4 31
-10 3 -5 15 -10 26 -10 10 0 27 -4 37 -10 24 -13 83 -37 110 -45 20 -6 20 -8
7 -21 -8 -9 -13 -20 -10 -24 8 -13 35 0 35 16 0 8 1 14 3 14 4 0 230 -115 282
-145 28 -15 86 -53 130 -83 69 -47 115 -83 246 -189 33 -27 209 -202 252 -251
70 -80 209 -271 256 -352 60 -103 89 -157 127 -238 24 -52 44 -96 44 -99 0 -3
6 -19 14 -36 61 -135 137 -417 166 -617 15 -104 23 -439 12 -535 -9 -89 -11
-86 -37 79 -9 60 -20 118 -25 130 -4 11 -13 41 -20 66 -15 55 -47 145 -65 185
-8 17 -25 55 -38 85 -13 30 -49 97 -80 149 -32 52 -57 96 -57 98 0 2 -4 9 -10
16 -5 7 -45 57 -88 112 -172 217 -400 403 -646 525 -91 45 -106 56 -92 65 32
24 3 36 -33 14 -14 -10 -34 -7 -97 15 -108 36 -129 42 -204 59 -160 36 -210
41 -435 41 -218 0 -285 -6 -408 -36 -39 -9 -39 -9 -33 -51 3 -23 8 -125 12
-226 7 -193 1 -218 -30 -123 -23 68 -52 112 -75 112 -32 0 -35 -20 -9 -48 14
-15 44 -67 67 -116 41 -83 43 -91 37 -150 -10 -87 -54 -299 -78 -365 -10 -31
-20 -63 -22 -71 -1 -8 -6 -24 -11 -35 -4 -11 -21 -54 -37 -95 -29 -74 -113
-240 -159 -313 -38 -60 -144 -206 -191 -261 -55 -66 -221 -231 -277 -276 -24
-19 -61 -49 -82 -67 -21 -17 -56 -42 -76 -54 -21 -13 -39 -27 -41 -31 -2 -4
-8 -8 -13 -8 -5 0 -39 -19 -76 -43 -65 -41 -174 -96 -258 -132 -70 -29 -85
-38 -85 -51 0 -15 26 -89 42 -118 6 -12 6 -22 -1 -29 -16 -16 -13 -37 4 -37 9
0 38 -49 75 -122 103 -209 212 -365 362 -516 89 -89 92 -94 73 -108 -69 -50
-70 -67 -6 -72 l43 -3 -4 40 c-2 23 -3 41 -2 41 1 0 21 -16 45 -36 122 -102
420 -276 512 -299 15 -4 30 -11 33 -16 3 -5 14 -9 25 -9 10 0 27 -4 37 -9 31
-16 116 -40 182 -52 36 -6 74 -15 85 -19 87 -35 589 -31 704 6 16 5 22 4 18
-3 -4 -6 -34 -19 -67 -29 -33 -11 -60 -22 -60 -26 0 -5 -13 -8 -29 -8 -17 0
-33 -4 -36 -10 -3 -5 -24 -10 -46 -10 -21 0 -39 -4 -39 -9 0 -15 -124 -48
-310 -83 -96 -18 -162 -22 -395 -25 -165 -3 -303 0 -335 6 -30 5 -100 17 -155
26 -55 9 -108 21 -117 26 -10 5 -31 9 -48 9 -17 0 -38 4 -48 9 -9 6 -44 17
-77 26 -33 9 -68 21 -77 26 -10 5 -27 9 -37 9 -11 0 -22 4 -25 9 -3 5 -18 12
-32 15 -63 16 -394 179 -402 199 -2 4 -7 7 -12 7 -8 0 -141 87 -167 110 -7 5
-16 10 -22 10 -5 0 -11 3 -13 8 -1 4 -46 42 -98 84 -53 42 -146 128 -207 191
l-111 115 -134 -132 c-136 -134 -203 -196 -213 -196 -3 0 -16 -9 -28 -21 -50
-47 -310 -212 -422 -267 -127 -63 -211 -102 -221 -102 -3 0 -20 -6 -37 -14
-41 -18 -78 -30 -152 -51 -33 -9 -69 -20 -80 -25 -11 -5 -36 -11 -55 -14 -34
-4 -203 -36 -305 -57 -79 -16 -590 -6 -705 15 -52 9 -114 19 -138 23 -23 3
-45 10 -48 14 -3 5 -16 9 -30 9 -51 0 -339 99 -461 158 -27 13 -29 18 -20 35
11 16 19 18 67 11 72 -9 477 -9 558 1 44 5 62 4 62 -4 0 -18 28 -13 34 7 6 17
28 25 136 48 14 3 34 9 45 14 11 5 45 16 75 26 120 37 289 122 424 212 61 40
116 79 121 86 6 6 26 23 45 36 48 34 199 188 263 268 57 71 147 198 147 207 0
3 16 31 35 61 19 30 35 56 35 59 0 2 15 37 33 77 19 40 37 82 41 92 5 14 10
16 18 8 11 -11 38 -5 38 9 0 5 -9 9 -20 9 -24 0 -25 7 -5 53 27 66 24 70 -92
127 -60 29 -132 68 -161 86 -29 19 -55 34 -57 34 -8 0 -178 123 -214 155 -173
152 -186 165 -299 300 -107 127 -133 166 -121 181 6 7 8 18 4 24 -10 16 -15
62 -9 83 7 22 58 49 78 41 12 -5 16 1 16 23 0 16 -5 34 -12 41 -17 17 -57 15
-64 -3 -4 -10 -15 -13 -31 -11 -13 3 -36 1 -50 -5 -23 -8 -24 -8 -13 6 10 12
8 21 -9 51 -20 33 -20 38 -6 60 14 22 13 24 -12 36 -20 10 -31 28 -45 75 -20
63 -48 93 -48 50 0 -27 -24 -65 -32 -51 -17 29 -79 245 -97 339 -12 61 -27
133 -33 160 -16 65 -16 496 -1 545 6 19 14 57 17 83 6 46 4 49 -22 59 -24 9
-27 15 -24 43 3 26 0 33 -16 38 -27 6 -32 0 -32 -36 0 -26 -3 -28 -22 -22 -73
23 -295 45 -435 43 -102 -2 -127 1 -156 16 -40 22 -64 16 -77 -19 -8 -22 -15
-25 -59 -25 -28 0 -60 -4 -73 -9 -13 -5 -57 -17 -98 -27 -41 -9 -82 -21 -90
-25 -8 -4 -35 -13 -60 -20 -25 -7 -56 -19 -70 -26 -14 -7 -31 -13 -37 -13 -7
0 -13 -4 -13 -10 0 -5 -7 -10 -16 -10 -21 0 -217 -103 -262 -138 -26 -20 -35
-23 -42 -12 -5 8 -14 10 -26 5 -18 -8 -18 -8 -1 -12 17 -5 24 -23 8 -23 -16 0
-163 -122 -246 -204 -160 -157 -284 -329 -377 -521 -50 -103 -53 -108 -56 -75
-2 19 1 51 6 70 6 19 22 87 37 150 56 242 165 504 303 730 105 171 317 431
433 532 30 25 65 56 79 68 128 114 309 238 465 319 28 14 52 29 53 33 2 5 8 8
14 8 6 0 44 16 84 35 84 41 90 42 97 15 12 -44 107 0 107 50 0 13 7 20 20 20
11 0 20 4 20 9 0 5 12 11 28 14 51 10 197 49 214 58 10 5 27 9 39 9 25 0 25 5
-21 135 -73 211 -121 451 -137 691 l-6 90 69 -4 c38 -2 74 -8 81 -14 7 -6 14
-5 18 2 3 5 22 10 40 10 26 0 39 6 50 24 23 35 110 100 183 136 55 27 62 34
62 60 0 16 -11 41 -24 57 l-25 28 -17 -25 c-34 -50 -141 -146 -189 -169 -28
-13 -58 -27 -68 -32 -10 -6 -54 -12 -97 -16 l-80 -6 0 83 c0 45 5 124 11 174
11 96 55 341 70 391 91 306 177 508 306 711 49 78 179 259 208 290 5 6 50 54
98 107 102 111 276 262 407 354 50 34 93 63 96 63 3 0 18 8 32 19 55 38 208
118 317 166 33 15 70 31 82 37 11 6 27 8 35 6 7 -3 -7 -14 -32 -27 -52 -25
-51 -24 -196 -118 -130 -84 -301 -238 -398 -357 -17 -21 -43 -53 -57 -70 -40
-47 -111 -160 -167 -266 -43 -82 -66 -131 -102 -225 -4 -11 -12 -32 -18 -46
-6 -15 -25 -82 -43 -150 -18 -68 -39 -128 -46 -132 -11 -7 -11 -12 -2 -23 13
-16 5 -84 -14 -115 -8 -13 -9 -22 -2 -27 6 -4 9 -56 7 -129 -3 -97 -6 -123
-17 -123 -20 0 -29 -20 -16 -33 9 -9 14 -8 20 2 6 10 11 -6 15 -45 11 -107 37
-268 47 -286 5 -9 9 -25 9 -36 0 -47 79 -260 148 -397 80 -161 246 -390 365
-504 l35 -33 54 41 c161 125 398 260 563 321 11 4 34 13 50 20 33 13 88 31
150 48 22 7 58 17 80 23 95 26 220 44 409 58 211 16 460 -7 673 -61 28 -7 55
-16 59 -21 4 -4 18 -7 31 -7 13 0 31 -4 41 -9 9 -6 51 -22 92 -37 107 -40 340
-160 407 -210 17 -13 36 -24 42 -24 6 0 11 -4 11 -10 0 -5 7 -10 15 -10 8 0
15 -4 15 -10 0 -14 29 -12 43 3 90 94 223 288 288 420 29 57 48 86 57 82 17
-6 28 23 14 37 -6 6 -7 18 -3 27 26 53 41 94 58 156 14 52 23 69 35 67 10 -1
18 7 22 22 4 16 20 32 41 42 35 16 46 34 22 34 -7 0 -18 -5 -24 -11 -16 -16
-55 7 -49 29 32 114 43 547 18 682 -40 210 -93 374 -176 545 -130 264 -290
465 -524 659 -64 53 -81 72 -77 87 11 32 -4 59 -32 59 -20 0 -24 -4 -20 -20 8
-29 -10 -25 -81 20 -34 22 -67 40 -72 40 -6 0 -9 16 -7 35 1 27 6 34 17 29 8
-4 25 -9 38 -11z m-436 -1216 c128 -150 263 -306 300 -348 l68 -77 67 34 c38
19 73 34 80 34 6 0 42 -44 78 -97 36 -54 100 -147 142 -208 42 -60 109 -159
150 -220 l74 -110 -198 203 c-109 112 -202 203 -206 202 -4 0 -52 -36 -106
-80 -55 -44 -103 -80 -108 -80 -5 0 -31 30 -58 68 -51 70 -107 146 -290 395
-63 87 -120 154 -138 163 -16 9 -30 14 -31 12 -1 -2 1 -63 6 -137 4 -74 6
-136 4 -138 -2 -2 -36 44 -77 102 -41 57 -77 105 -80 105 -3 0 -14 -47 -25
-105 -18 -105 -37 -137 -53 -92 -52 147 -64 177 -70 177 -4 0 -33 -45 -65
-100 -51 -89 -76 -118 -76 -91 0 5 -17 49 -38 99 l-37 91 -65 -59 c-36 -33
-68 -59 -72 -60 -5 0 -8 9 -8 19 0 11 -4 22 -9 25 -4 3 -75 -80 -156 -184 -81
-105 -150 -188 -155 -185 -4 2 -33 63 -65 135 -51 114 -60 128 -74 117 -49
-38 -602 -510 -607 -518 -3 -5 -10 -9 -15 -9 -5 0 25 42 69 93 69 81 211 251
480 572 47 55 90 106 96 113 10 11 34 2 124 -47 61 -33 118 -61 126 -63 17 -4
31 16 205 275 72 108 137 197 142 197 6 0 52 -34 102 -75 51 -41 94 -75 98
-75 3 0 50 46 105 103 65 67 105 101 116 98 10 -2 122 -125 250 -274z m-2794
-7773 c25 -7 30 -24 7 -24 -8 0 -15 -4 -15 -9 0 -5 7 -14 15 -21 8 -7 15 -20
15 -30 0 -10 7 -20 15 -24 9 -3 15 0 15 8 0 22 36 25 49 4 9 -15 15 -16 32 -7
20 10 20 11 3 30 -16 17 -16 21 -3 35 9 9 23 12 33 8 14 -5 16 -14 12 -38 -4
-17 -6 -35 -5 -41 1 -5 3 -106 6 -222 3 -183 2 -213 -11 -213 -8 0 -18 5 -21
10 -10 16 -23 12 -35 -10 -9 -17 -6 -26 21 -52 26 -26 29 -35 20 -50 -16 -26
-13 -67 8 -102 17 -27 19 -57 23 -251 5 -246 6 -252 79 -327 37 -38 45 -42 90
-42 43 0 49 -2 49 -20 1 -12 2 -63 4 -114 l3 -93 -31 -13 -31 -14 28 -11 c24
-9 27 -16 27 -56 0 -25 1 -48 3 -52 3 -12 -165 -14 -188 -3 -11 5 -31 11 -45
13 -47 6 -131 58 -194 120 -49 48 -74 84 -109 157 -57 117 -89 258 -68 292 10
16 10 23 2 26 -11 4 -16 52 -5 52 3 0 18 -9 33 -19 35 -25 53 -14 49 30 -3 32
-5 34 -45 37 l-43 3 0 375 c0 326 2 374 15 374 8 0 15 7 15 16 0 10 -6 14 -15
10 -11 -4 -15 2 -15 20 0 21 4 25 24 22 16 -2 34 6 51 22 15 14 37 25 51 25
29 0 36 18 9 24 -11 2 -32 12 -46 22 -28 20 -46 15 -28 -7 14 -17 4 -44 -16
-44 -21 0 -30 27 -15 44 9 12 7 17 -12 27 l-23 12 23 10 c30 14 32 61 2 52
-20 -7 -24 2 -14 29 5 12 21 14 92 11 48 -2 97 -7 110 -11z m959 5 c8 -8 17
-8 30 0 14 7 23 7 32 -2 6 -7 26 -17 44 -23 38 -13 52 -47 16 -42 -12 2 -24
-3 -26 -9 -3 -9 5 -13 24 -13 l28 0 -22 -18 c-12 -9 -29 -30 -38 -47 l-17 -30
5 33 c3 29 1 32 -17 26 -12 -3 -25 -10 -30 -15 -6 -5 -18 -9 -28 -9 -10 0 -18
-7 -18 -16 0 -12 7 -14 30 -9 25 6 31 3 41 -19 7 -14 20 -28 31 -31 10 -4 18
-11 18 -16 0 -5 7 -9 15 -9 8 0 15 -4 15 -10 0 -5 -7 -7 -15 -4 -22 9 -18 -13
5 -33 19 -17 20 -30 20 -463 0 -433 -1 -447 -24 -535 -35 -138 -99 -262 -170
-328 -58 -55 -164 -117 -199 -117 -9 0 -19 -5 -22 -10 -4 -6 -46 -9 -103 -8
-94 3 -97 4 -100 27 -7 45 7 88 31 96 22 7 22 7 -3 14 -25 7 -25 9 -28 123
l-3 115 50 5 c94 9 171 112 171 228 0 42 4 59 15 64 8 3 15 10 15 16 0 5 -7
10 -15 10 -13 0 -15 53 -15 415 l0 415 25 0 c14 0 25 -6 25 -13 0 -9 18 -12
73 -9 70 4 99 14 83 29 -4 4 -19 8 -34 9 -15 0 -41 2 -59 2 -17 1 -38 9 -47
17 -8 8 -21 15 -29 15 -19 0 -29 25 -21 55 3 12 1 26 -5 29 -19 12 -13 53 9
59 11 3 20 12 20 21 0 11 9 16 27 16 14 0 23 -3 20 -6 -11 -11 13 -44 32 -44
14 0 19 -7 17 -27 -1 -33 17 -44 22 -13 2 11 12 25 23 30 22 12 26 35 5 27
-18 -7 -28 17 -13 32 14 14 70 14 84 0z m-1277 -6 c0 -5 -43 -80 -96 -168 -53
-88 -108 -182 -123 -208 -14 -27 -38 -62 -53 -78 -16 -16 -28 -33 -28 -39 0
-19 -64 -50 -102 -50 -21 0 -38 -4 -38 -10 0 -5 3 -10 8 -11 50 -5 79 -4 90 4
18 14 14 -5 -8 -33 -11 -14 -20 -31 -20 -37 0 -7 -9 -18 -20 -25 -11 -7 -20
-23 -20 -35 0 -12 -12 -37 -28 -55 -15 -18 -34 -46 -42 -63 -23 -47 -32 -53
-72 -47 -34 4 -38 2 -44 -23 -6 -22 -2 -32 15 -46 l22 -18 -27 -43 c-15 -24
-30 -45 -33 -48 -3 -3 -12 -16 -19 -30 -7 -14 -61 -106 -120 -205 l-108 -180
-49 -6 c-28 -3 -52 -5 -54 -3 -6 5 -2 336 4 355 3 10 2 20 -4 23 -24 15 5 96
82 226 91 153 88 149 94 133 9 -26 24 -13 18 15 -4 21 1 38 25 70 16 23 33 41
38 41 18 -3 24 2 14 14 -14 16 -4 57 13 57 16 0 48 47 40 59 -6 10 80 144 96
149 5 2 9 10 9 18 0 17 51 117 63 122 4 2 7 8 7 13 0 6 22 45 50 88 l50 77
185 3 c102 1 185 -2 185 -6z m-1618 -63 c38 -57 58 -91 115 -200 19 -36 54
-94 79 -129 29 -41 43 -70 39 -81 -4 -13 3 -25 24 -41 59 -44 51 -74 -21 -77
-29 -1 -54 -6 -57 -11 -6 -8 -89 -21 -173 -27 -43 -3 -48 -1 -66 29 l-19 33
50 -1 c61 0 71 16 22 35 -20 8 -41 20 -47 27 -8 10 -14 11 -25 1 -23 -19 -31
-8 -257 367 -36 61 -66 116 -66 123 0 10 40 12 183 10 l182 -3 37 -55z m3260
49 c-29 -11 -24 -31 9 -40 33 -8 129 1 129 12 0 5 14 9 30 9 25 0 30 -4 30
-25 0 -23 3 -25 28 -19 15 4 32 11 39 16 7 5 14 5 17 0 4 -6 21 -6 47 -1 45
11 71 6 94 -18 11 -10 20 -12 28 -5 7 5 23 12 37 14 14 3 32 9 42 12 11 5 18
1 23 -14 7 -21 49 -45 73 -41 21 3 13 -33 -13 -62 -15 -15 -36 -27 -50 -27
-36 0 -31 -16 7 -24 24 -5 36 -2 45 10 9 12 16 13 31 5 23 -12 33 -5 25 17 -5
11 -2 14 10 9 9 -3 19 -2 22 3 4 6 1 10 -6 10 -6 0 -18 8 -25 18 -16 20 -18
52 -4 52 6 0 10 -4 10 -10 0 -5 7 -10 15 -10 26 0 16 27 -18 47 -25 15 -38 17
-56 10 -17 -8 -25 -7 -32 4 -26 41 12 81 39 41 18 -27 32 -28 32 -2 0 22 34
28 46 9 4 -8 9 -8 17 0 6 6 44 11 85 11 67 0 72 -1 58 -16 -18 -18 -20 -30 -6
-39 15 -9 -7 -45 -27 -45 -9 0 -21 7 -28 17 -14 19 -35 10 -35 -15 0 -20 40
-48 49 -35 3 5 26 10 49 11 24 0 50 6 57 12 8 7 19 9 25 5 6 -4 2 -13 -12 -25
-13 -10 -19 -22 -14 -27 5 -4 11 -2 13 5 8 20 31 13 35 -10 2 -17 11 -24 31
-26 29 -4 51 12 61 45 4 11 15 23 26 26 13 3 17 11 13 26 -3 12 -10 21 -15 21
-5 0 -6 4 -3 10 4 6 13 6 23 1 9 -5 30 -14 46 -20 31 -13 27 -26 -7 -26 -28 0
-46 -51 -24 -72 13 -13 16 -11 25 16 20 56 32 35 32 -55 0 -121 2 -120 -209
-123 -188 -2 -256 10 -247 43 3 11 0 26 -5 33 -17 20 0 35 32 28 18 -4 29 -3
29 4 0 6 -7 11 -15 11 -22 0 -18 23 6 39 14 8 24 9 28 3 3 -6 20 -12 36 -14
20 -2 31 -9 34 -23 2 -11 9 -24 17 -28 8 -4 14 -17 14 -27 0 -25 11 -25 32 -1
14 17 13 21 -23 55 -22 20 -39 46 -39 58 0 20 -1 20 -18 5 -22 -20 -43 -22
-60 -5 -10 10 -23 2 -62 -40 -34 -37 -56 -52 -74 -52 -14 0 -26 -2 -26 -4 0
-16 14 -36 25 -36 7 0 15 -11 17 -25 5 -23 3 -25 -37 -25 -23 0 -70 3 -104 6
-49 6 -59 9 -50 20 15 18 3 34 -27 34 -15 0 -24 -6 -24 -15 0 -8 5 -15 10 -15
6 0 10 -7 10 -15 0 -12 -15 -15 -79 -15 -44 0 -83 4 -86 10 -3 6 1 7 9 4 9 -3
16 -1 16 5 0 16 -26 14 -44 -4 -19 -20 -227 -17 -234 3 -5 15 -48 16 -58 1 -5
-8 -10 -6 -16 5 -14 25 -31 20 -17 -5 11 -21 10 -22 -22 -15 -46 9 -67 47 -34
60 8 3 15 12 15 21 0 16 25 20 90 15 25 -1 45 -12 68 -36 33 -34 65 -44 78
-23 8 13 -16 31 -33 24 -13 -4 -53 40 -53 59 0 6 -9 17 -20 24 -17 10 -18 15
-8 32 16 25 23 25 48 0 22 -22 45 -18 36 6 -3 8 -1 14 4 14 6 0 10 5 10 10 0
6 -7 10 -15 10 -9 0 -20 11 -25 25 -10 25 -43 34 -55 15 -11 -18 -35 -11 -35
10 0 15 -7 20 -25 20 -14 0 -28 -7 -31 -15 -7 -16 -44 -21 -44 -6 0 20 47 59
75 64 51 7 61 6 37 -4z m2256 -14 c7 -14 12 -32 12 -39 0 -24 -43 -27 -83 -6
-21 11 -45 20 -54 20 -9 0 -31 5 -49 12 -25 9 -39 9 -56 0 -13 -6 -32 -12 -42
-14 -52 -8 -14 -34 74 -52 69 -14 87 -19 117 -32 17 -8 37 -14 45 -14 7 0 31
-7 53 -14 l39 -14 45 -133 c24 -74 52 -152 62 -174 9 -22 25 -65 34 -95 10
-30 23 -68 30 -85 29 -66 35 -95 21 -95 -8 0 -17 -7 -20 -16 -5 -13 -1 -15 19
-12 22 5 26 1 36 -35 6 -22 15 -47 20 -56 5 -9 41 -108 80 -221 39 -113 84
-243 101 -290 93 -262 116 -327 123 -342 7 -17 -7 -18 -219 -18 l-225 0 -11
43 c-6 23 -15 53 -19 67 -5 14 -14 45 -21 70 -16 59 -24 86 -45 143 l-17 47
-238 0 c-131 0 -241 4 -244 9 -5 8 37 175 55 216 4 11 13 39 19 63 l11 42 149
0 c83 0 150 2 150 4 0 5 -21 68 -30 91 -4 11 -13 40 -20 65 -7 25 -16 56 -20
70 -11 32 -64 227 -85 308 -11 45 -13 68 -5 81 16 30 12 38 -20 45 -42 8 -80
-11 -80 -41 0 -19 5 -23 31 -23 25 0 29 -3 24 -19 -3 -11 -21 -77 -40 -148
-28 -107 -69 -253 -115 -408 -5 -16 -20 -68 -34 -115 -60 -208 -109 -366 -117
-383 -9 -16 -12 -15 -36 7 -14 13 -37 30 -52 38 -42 21 -63 45 -70 79 -5 23
-14 34 -37 43 -52 19 -143 80 -144 96 0 19 24 87 34 97 4 4 9 -3 13 -15 8 -34
23 -26 23 13 0 22 6 37 17 44 10 5 14 13 10 17 -4 5 -17 2 -29 -5 -18 -11 -20
-11 -14 4 3 9 9 28 12 41 5 19 11 23 30 18 27 -7 29 -2 13 27 -7 15 -7 24 1
34 6 7 7 15 2 17 -8 2 13 83 35 138 3 8 7 20 8 25 6 26 57 172 65 187 6 10 10
26 10 36 0 10 3 22 7 26 4 3 16 37 28 74 19 60 25 69 60 85 l39 19 -24 18 -25
19 22 63 c54 158 68 195 85 217 10 13 18 32 18 42 0 18 12 19 223 19 l224 0
11 -25z m1087 -37 c54 -86 85 -139 85 -147 0 -3 -7 3 -16 14 -12 16 -16 17
-23 6 -19 -29 14 -91 48 -91 16 0 32 -9 41 -24 8 -12 34 -52 58 -87 23 -34 40
-69 37 -77 -3 -7 2 -20 10 -29 9 -9 13 -23 10 -34 -5 -15 -1 -19 20 -19 20 0
26 -4 23 -17 -2 -14 -15 -19 -53 -21 -27 -2 -54 -7 -60 -11 -12 -10 -98 -22
-173 -26 -48 -2 -55 0 -65 22 -14 31 5 46 51 38 50 -9 40 16 -18 43 -27 13
-54 21 -59 17 -6 -3 -24 9 -40 27 -24 26 -29 39 -25 64 5 27 2 33 -25 45 -21
11 -50 48 -97 125 -90 147 -134 224 -134 235 0 5 80 9 183 9 l182 0 40 -62z
m1012 46 c4 -11 -1 -22 -13 -31 -18 -13 -18 -15 -1 -24 15 -9 17 -31 17 -228
0 -185 -2 -221 -15 -231 -12 -10 -19 -10 -27 -2 -7 7 -23 12 -37 12 -22 0 -23
-2 -11 -14 21 -20 70 -32 70 -16 0 6 5 8 10 5 13 -8 14 -272 1 -279 -5 -3 -19
2 -32 13 -23 18 -23 18 -38 -13 -17 -34 -36 -37 -128 -21 -43 8 -50 2 -34 -24
7 -10 -2 -28 -30 -61 -50 -59 -54 -100 -10 -100 52 0 159 29 218 60 32 17 59
30 60 30 7 0 2 -439 -4 -443 -5 -2 -39 -2 -76 1 l-69 4 -26 53 c-15 28 -48 84
-74 123 -27 40 -48 79 -48 87 0 8 -4 15 -9 15 -6 0 -23 28 -40 63 -30 60 -31
67 -37 252 l-7 191 39 9 c52 13 53 39 2 43 -45 4 -48 16 -10 34 31 15 41 52
17 62 -11 4 -15 1 -13 -11 2 -10 -4 -19 -14 -21 -15 -3 -16 12 -17 140 -1 79
-4 187 -7 241 l-7 97 197 0 c173 0 197 -2 203 -16z m335 5 c14 -7 23 -8 27 -1
4 7 151 10 413 11 357 1 407 -1 402 -14 -6 -16 -1 -18 55 -19 39 -1 54 -24 22
-33 -22 -6 -27 -18 -12 -28 5 -3 12 -1 16 5 4 6 11 8 16 4 6 -4 3 -14 -7 -25
-17 -18 -18 -18 -42 6 -25 25 -33 29 -64 26 -12 -2 -18 5 -18 18 0 35 -46 23
-61 -15 -10 -27 -46 -33 -55 -10 -7 19 -34 9 -34 -13 0 -23 39 -46 53 -32 6 6
29 11 52 11 23 0 46 5 53 12 20 20 26 -1 7 -22 -10 -11 -15 -23 -10 -28 4 -4
10 -1 12 6 8 20 31 14 35 -10 2 -17 10 -23 32 -25 31 -2 50 11 60 44 4 11 15
23 26 26 13 3 17 11 13 26 -3 12 -10 21 -15 21 -5 0 -6 5 -3 10 4 7 11 7 18 2
7 -5 24 -12 40 -16 32 -8 37 -37 5 -33 -16 1 -23 -5 -28 -23 -4 -14 -5 -31 -2
-37 7 -21 30 -15 34 9 2 12 9 23 16 26 10 3 12 -16 11 -82 -1 -47 -5 -86 -10
-86 -4 0 -10 -9 -14 -20 -5 -17 -14 -19 -60 -17 -49 2 -54 4 -57 26 -4 33 -22
37 -37 7 -17 -30 -37 -36 -131 -36 -98 0 -184 29 -150 50 11 7 11 11 1 24 -19
23 -4 38 30 31 18 -4 29 -3 29 4 0 6 -7 11 -15 11 -23 0 -18 18 10 36 29 19
33 34 8 33 -10 0 -36 -22 -58 -49 -29 -36 -47 -49 -67 -49 -16 -1 -28 -4 -28
-8 0 -17 19 -35 29 -29 7 5 11 -3 11 -23 l0 -30 -117 3 c-78 2 -118 7 -121 14
-2 7 1 12 6 12 6 0 12 -5 14 -12 6 -17 28 0 28 23 0 14 -7 19 -30 19 -16 0
-30 -4 -30 -10 0 -5 -8 -19 -17 -30 -14 -16 -30 -20 -76 -20 -39 0 -56 4 -52
11 4 6 13 8 21 5 8 -3 14 -1 14 4 0 14 -17 12 -44 -6 -20 -12 -51 -15 -165
-12 -96 2 -141 7 -141 14 0 6 -7 17 -16 25 -13 11 -14 9 -9 -14 9 -33 -11 -36
-46 -8 -23 18 -23 20 -6 39 13 14 16 28 11 46 -4 16 -2 26 5 26 6 0 11 -4 11
-10 0 -5 8 -10 17 -10 14 0 13 4 -6 24 -13 14 -20 29 -16 35 13 21 30 10 47
-30 16 -38 20 -41 48 -36 16 4 30 2 30 -2 0 -5 14 -23 31 -40 31 -32 62 -40
75 -20 8 13 -16 31 -33 24 -14 -5 -53 41 -53 61 0 8 -3 14 -7 14 -5 0 -15 4
-23 10 -12 7 -12 12 4 29 22 25 36 27 36 6 0 -8 7 -15 15 -15 24 0 30 4 27 18
-2 6 2 12 8 12 5 0 10 5 10 10 0 6 -6 10 -14 10 -8 0 -17 8 -20 18 -3 9 -15
23 -26 30 -17 11 -23 10 -36 -3 -21 -20 -31 -19 -37 5 -6 24 -39 27 -57 5 -7
-8 -19 -15 -26 -15 -8 0 -14 7 -14 15 0 8 7 15 15 15 8 0 15 9 15 19 0 15 8
21 38 24 78 8 134 7 154 -4z m-8348 -162 c-8 -4 -14 -15 -14 -22 0 -18 27 -20
33 -2 2 6 6 10 9 7 16 -18 78 -134 78 -146 0 -8 3 -14 8 -14 9 0 72 -104 72
-119 0 -17 -51 -63 -65 -57 -7 2 -18 -1 -25 -7 -10 -9 -11 -7 -5 11 8 28 -1
72 -15 72 -6 0 -10 -7 -10 -15 0 -8 -11 -25 -25 -37 -14 -12 -25 -30 -25 -39
0 -24 -15 -32 -30 -14 -8 9 -10 39 -6 92 6 91 6 84 0 233 l-4 115 19 -25 c17
-21 17 -26 5 -33z m6603 26 c11 -27 39 -75 56 -98 25 -32 77 -130 87 -162 7
-21 20 -46 28 -56 12 -14 13 -20 4 -29 -10 -10 -21 -3 -51 30 -21 23 -43 42
-47 42 -5 0 -15 -10 -23 -22 -12 -19 -11 -23 10 -40 13 -10 36 -23 52 -30 34
-16 35 -28 2 -28 -14 0 -33 -4 -43 -9 -68 -35 -72 -35 -87 -15 -17 22 -19 44
-5 44 6 0 10 11 10 25 0 14 -4 25 -10 25 -6 0 -10 41 -10 103 0 86 4 106 20
127 25 32 25 47 0 62 -11 7 -20 23 -20 35 0 31 13 29 27 -4z m-4587 -133 c0
-133 -1 -140 -20 -140 -11 0 -20 -7 -20 -16 0 -11 6 -14 20 -9 20 6 20 2 20
-209 0 -185 -2 -216 -15 -216 -8 0 -15 -4 -15 -9 0 -5 7 -14 15 -21 12 -10 15
-38 15 -134 0 -71 -4 -126 -10 -132 -8 -8 -8 -19 0 -38 6 -16 10 -121 10 -251
0 -198 -2 -224 -17 -229 -15 -6 -14 -8 2 -20 27 -19 12 -46 -25 -46 -27 0 -30
3 -25 20 4 14 2 20 -9 20 -8 0 -18 -9 -21 -20 -6 -19 -15 -20 -150 -20 -105 0
-144 3 -147 13 -7 19 0 396 7 407 4 6 1 18 -6 26 -10 12 -9 18 3 31 18 17 42
8 34 -13 -3 -8 1 -14 9 -14 16 0 20 27 7 46 -4 7 -16 13 -27 16 -19 3 -20 10
-18 233 l3 230 40 78 c22 43 66 120 99 170 32 51 96 158 141 240 46 81 87 147
92 147 4 0 8 -63 8 -140z m2006 -137 c13 -17 15 -17 28 0 16 21 64 23 72 2 4
-8 12 -15 19 -15 7 0 15 7 19 15 7 20 36 19 51 -1 11 -16 14 -16 44 2 27 16
34 17 53 5 16 -10 22 -10 28 -1 13 22 45 7 48 -23 3 -26 2 -27 -22 -15 -30 13
-31 12 -41 -22 -7 -22 -6 -23 8 -12 21 18 37 7 37 -24 0 -14 4 -22 10 -19 6 4
10 -18 10 -59 0 -36 -4 -68 -10 -71 -5 -3 -10 -20 -10 -36 0 -17 -5 -40 -11
-51 -8 -14 -8 -23 0 -31 8 -8 11 -6 11 6 0 9 5 17 10 17 6 0 10 -42 10 -105 0
-89 -2 -104 -15 -99 -8 4 -15 2 -15 -4 0 -5 7 -15 15 -22 20 -16 20 -93 0
-110 -9 -8 -13 -21 -9 -36 5 -21 3 -24 -20 -24 -28 0 -34 18 -14 38 9 9 7 12
-10 12 -12 0 -22 -4 -22 -10 0 -5 -16 -12 -35 -16 -43 -8 -41 -30 1 -26 24 2
32 -3 47 -29 14 -24 21 -29 29 -21 7 7 20 12 30 12 13 0 18 -8 18 -30 0 -23
-3 -28 -16 -23 -12 4 -15 2 -12 -8 3 -8 11 -13 17 -12 8 2 11 -66 11 -242 l0
-245 -195 2 -196 3 -1 295 c0 163 2 309 6 326 4 17 2 43 -4 58 -8 23 -6 30 15
50 31 28 31 34 3 38 -11 2 -22 11 -24 21 -3 21 9 22 26 2 16 -19 40 -3 40 26
0 15 7 19 35 19 19 0 35 5 35 11 0 7 -23 10 -65 7 -76 -4 -75 -4 -69 112 2 41
4 81 4 88 0 6 7 12 15 12 8 0 15 -4 15 -9 0 -13 33 -19 58 -10 12 5 22 15 22
23 0 20 -63 49 -89 41 -25 -8 -34 23 -13 48 12 13 13 22 4 40 -16 34 -21 66
-11 73 5 3 7 21 3 40 -7 37 1 44 22 17z m4579 0 c13 -17 14 -17 32 0 25 22 59
22 71 1 9 -15 12 -15 40 1 28 17 31 17 47 2 20 -21 29 -21 44 -3 8 9 31 13 69
12 54 -1 57 -2 60 -28 4 -32 -4 -35 -29 -12 -17 16 -19 15 -29 -10 -13 -36
-13 -41 5 -26 18 15 35 5 35 -21 0 -10 5 -19 10 -19 14 0 13 -137 -1 -142 -9
-3 -9 -9 0 -25 6 -13 11 -72 11 -147 0 -107 -2 -125 -15 -120 -8 4 -15 2 -15
-4 0 -5 7 -15 15 -22 18 -15 20 -91 3 -108 -7 -7 -27 -12 -45 -12 -18 0 -33
-4 -33 -10 0 -5 -16 -12 -35 -16 -22 -4 -34 -11 -30 -18 3 -6 8 -19 11 -28 4
-12 16 -17 41 -16 20 1 39 -5 45 -13 7 -11 11 -11 15 -1 2 6 13 12 24 12 14 0
19 -7 19 -29 0 -24 -3 -28 -20 -24 -11 3 -20 0 -20 -6 0 -10 14 -15 33 -12 4
0 7 -64 7 -143 l0 -145 -30 -33 c-37 -40 -37 -51 -5 -66 30 -14 31 -25 4 -68
-20 -32 -23 -34 -80 -34 -37 0 -59 4 -59 11 0 8 -4 8 -14 0 -9 -8 -48 -11
-112 -9 l-99 3 -3 190 c-1 105 0 200 3 212 6 27 47 50 104 59 23 4 41 10 41
15 0 5 8 9 18 9 23 0 62 36 62 56 0 12 -10 14 -47 12 -27 -2 -54 -9 -62 -16
-9 -9 -25 -12 -43 -8 -21 4 -28 2 -28 -9 0 -9 -10 -15 -26 -15 -21 0 -25 4
-22 23 2 14 11 23 25 25 39 6 36 62 -3 62 -8 0 -11 6 -8 15 4 9 0 29 -7 47
-12 29 -11 32 14 52 33 26 34 34 5 38 -11 2 -22 11 -24 21 -3 21 9 22 26 2 15
-19 42 -2 38 24 -2 11 6 17 27 19 17 2 35 8 40 14 7 6 -13 9 -60 6 l-70 -3 -3
106 c-2 100 -1 107 18 112 23 6 28 37 6 37 -23 0 -31 39 -10 54 17 13 17 15 0
51 -14 28 -16 43 -8 59 5 12 8 34 5 49 -6 31 4 35 22 10z m-8472 -167 c4 -10
17 -13 43 -10 29 4 35 2 30 -11 -3 -9 0 -15 8 -15 14 0 28 -45 18 -55 -3 -3
-24 -5 -47 -5 -23 0 -50 -7 -61 -15 -32 -24 -113 -5 -114 27 0 4 14 15 31 23
35 18 69 50 69 65 0 15 17 12 23 -4z m6604 -6 c6 -21 37 -27 48 -10 10 17 25
11 25 -10 0 -11 5 -20 10 -20 6 0 10 5 10 10 0 14 43 13 58 -2 18 -18 14 -38
-7 -38 -11 0 -23 -4 -26 -10 -3 -5 -27 -10 -53 -10 -26 -1 -58 -7 -72 -15 -14
-8 -39 -14 -57 -15 -17 0 -35 -4 -38 -10 -3 -5 -17 -10 -31 -10 -19 0 -24 5
-24 25 0 22 4 25 39 25 48 0 95 33 71 50 -13 9 -13 12 3 21 9 5 17 17 17 24 0
22 21 18 27 -5z m623 -64 c7 -15 10 -36 6 -52 -6 -23 -4 -26 13 -21 22 5 29
-1 59 -53 11 -19 71 -123 134 -230 88 -148 112 -197 101 -203 -21 -13 -15 -30
10 -24 17 5 26 0 40 -24 9 -17 17 -36 17 -42 0 -7 12 -23 25 -36 33 -31 41
-64 21 -93 -9 -12 -16 -30 -16 -40 0 -18 4 -19 45 -23 11 -1 27 -3 35 -4 8 0
22 -14 32 -30 15 -28 15 -29 -3 -34 -27 -7 -24 -22 11 -55 30 -29 38 -56 21
-67 -5 -3 -12 -18 -16 -34 l-6 -29 -125 -1 c-68 -1 -124 0 -124 3 0 2 -3 12
-7 22 -4 11 -3 15 5 10 6 -3 14 -1 17 5 5 7 -1 9 -16 7 -25 -3 -43 23 -207
297 -196 327 -290 482 -310 514 -12 20 -27 45 -32 56 -6 11 -19 34 -30 50 -29
43 -52 96 -46 103 4 3 16 0 29 -5 37 -19 66 -22 77 -8 5 7 38 15 72 19 34 3
69 12 77 20 15 13 39 22 67 25 6 0 16 -10 24 -23z m-6743 -58 c-27 -61 -30
-73 -41 -163 l-11 -89 -44 69 c-24 40 -38 71 -32 73 20 7 13 60 -9 67 -11 3
-20 11 -20 17 0 5 -7 8 -15 4 -14 -5 -35 20 -35 43 0 13 27 15 32 2 2 -4 27
-11 56 -15 42 -5 53 -4 58 9 4 9 18 15 35 15 16 0 29 6 30 13 0 9 2 9 5 0 3
-7 -1 -27 -9 -45z m-324 -11 c11 -4 21 -16 24 -27 3 -11 11 -20 19 -20 16 0
24 -12 30 -45 3 -18 0 -25 -12 -25 -10 0 -14 -5 -10 -15 3 -8 1 -15 -3 -15 -5
0 -12 -7 -15 -16 -5 -13 -1 -15 18 -10 l24 6 0 -265 0 -265 -33 0 c-44 0 -59
-32 -42 -92 11 -36 18 -44 42 -48 38 -6 47 -43 15 -60 -18 -10 -24 -8 -39 9
-24 27 -49 27 -73 -1 -28 -32 -58 -93 -58 -118 0 -11 -7 -20 -15 -20 -11 0
-15 12 -15 46 l0 45 -82 -2 -83 -2 -3 40 c-4 48 11 56 85 41 85 -16 125 -13
145 12 27 33 23 38 -30 32 -46 -4 -50 -3 -92 42 -25 26 -49 54 -54 63 -8 14
-12 13 -32 -13 l-24 -29 0 36 c0 23 7 42 20 54 22 20 17 43 -5 25 -13 -11 -15
164 -6 551 1 32 5 38 32 48 46 16 47 15 47 -33 0 -30 -5 -46 -14 -50 -12 -5
-12 -9 -2 -26 7 -11 18 -20 24 -20 17 0 39 30 28 38 -11 8 -13 102 -1 102 4 0
7 -4 7 -9 0 -5 16 -15 35 -21 19 -6 35 -18 35 -26 0 -25 17 -15 23 14 6 33 7
33 -42 39 -23 3 -41 10 -41 14 0 16 88 13 108 -4 15 -12 31 5 32 33 0 9 3 11
8 4 4 -6 15 -14 25 -17z m6588 1 c12 -7 37 -28 55 -47 34 -34 43 -64 23 -77
-8 -4 -8 -9 0 -17 8 -8 11 -147 11 -449 l0 -438 -195 0 -195 0 0 478 c0 498 0
502 42 502 10 0 27 6 38 12 16 10 24 10 43 -1 12 -8 34 -21 50 -29 15 -7 27
-18 27 -23 0 -5 7 -9 15 -9 8 0 15 5 15 10 0 14 -38 55 -53 56 -7 1 -18 2 -24
3 -7 0 -13 6 -13 12 0 8 20 10 64 7 52 -5 63 -3 59 8 -6 17 11 18 38 2z
m-6133 -154 c48 -27 39 -63 -23 -94 -48 -23 -66 -42 -59 -62 3 -10 0 -26 -7
-34 -10 -13 -14 -12 -30 2 -20 18 -25 49 -10 58 5 3 12 36 16 73 3 38 13 79
22 91 15 24 15 24 36 4 12 -10 37 -27 55 -38z m217 -340 c1 -112 -2 -204 -6
-204 -7 0 -4 -85 6 -152 3 -21 1 -38 -3 -38 -5 0 -60 86 -123 190 -171 286
-163 270 -145 283 8 7 26 27 38 46 13 19 33 36 46 38 13 2 32 13 42 25 15 19
20 20 33 10 9 -8 26 -10 41 -6 19 4 28 2 32 -10 10 -25 24 -19 24 11 0 14 3
23 7 19 4 -4 8 -99 8 -212z m4062 -175 c4 -21 13 -31 32 -35 26 -5 31 -8 86
-44 17 -11 42 -20 57 -20 21 0 31 -9 50 -42 13 -24 33 -47 46 -53 32 -14 36
-37 15 -105 l-17 -60 -174 0 c-197 0 -191 -3 -175 86 5 30 6 54 1 54 -9 0 -11
51 -2 74 3 9 15 16 25 16 27 0 24 18 -3 22 -18 2 -22 8 -20 28 2 14 8 29 13
35 5 5 9 15 9 21 0 7 4 24 10 38 12 33 39 24 47 -15z m-662 -884 c15 -33 42
-93 61 -134 39 -85 40 -94 15 -147 -10 -21 -27 -57 -37 -79 -10 -22 -27 -48
-37 -57 -11 -10 -17 -24 -13 -33 3 -9 -3 -24 -15 -36 -11 -11 -17 -24 -14 -29
7 -12 -74 -190 -87 -190 -4 0 -8 4 -8 9 0 8 -185 433 -284 653 -24 53 -41 100
-38 103 4 3 102 5 218 4 l212 -3 27 -61z m740 55 c4 -6 -51 -139 -111 -267
-13 -28 -24 -54 -24 -57 0 -3 -16 -39 -35 -80 -19 -41 -35 -78 -35 -81 0 -3
-18 -45 -41 -93 -22 -48 -50 -108 -61 -134 -11 -26 -24 -45 -29 -42 -5 3 -6
-2 -3 -10 8 -21 -25 -86 -45 -86 -14 0 -14 2 -1 10 11 7 11 10 2 10 -14 0 -50
-34 -69 -66 -11 -19 -12 -19 -34 3 -20 20 -21 23 -5 38 30 31 17 48 -26 33
-21 -8 -33 -7 -41 1 -6 6 -26 11 -45 11 -25 0 -35 5 -39 20 -10 36 -30 23 -27
-17 1 -21 3 -40 3 -42 1 -2 8 2 16 9 12 10 20 6 45 -22 26 -28 28 -34 14 -37
-16 -3 -15 -5 3 -20 14 -10 24 -33 29 -65 6 -44 5 -48 -12 -42 -24 7 -36 -2
-51 -35 -10 -24 -9 -28 13 -40 19 -10 27 -10 36 -1 19 19 29 14 16 -8 -9 -15
-10 -22 -1 -31 15 -15 33 -3 33 23 0 11 8 22 20 25 11 3 20 12 20 20 0 10 -6
12 -21 8 -19 -6 -20 -3 -17 37 2 34 6 42 21 40 9 -2 17 2 17 8 0 5 -4 10 -10
10 -13 0 -13 27 1 36 17 10 39 -18 45 -58 5 -25 -1 -50 -21 -94 -15 -32 -33
-75 -42 -94 -24 -58 -28 -63 -47 -66 -10 -1 -19 -4 -19 -6 -16 -31 -28 -44
-46 -46 -27 -4 -28 23 -1 40 11 7 20 16 20 20 0 11 -58 10 -64 -1 -3 -4 -18
-11 -34 -14 -32 -7 -102 -66 -102 -88 0 -8 19 -23 41 -34 23 -11 59 -41 81
-66 l38 -46 -60 -133 c-33 -74 -60 -136 -60 -137 0 -2 -97 -3 -215 -3 -181 0
-215 2 -215 14 0 13 47 122 136 314 13 29 24 55 24 57 0 5 14 36 66 152 13 28
24 56 24 61 0 5 7 15 15 22 13 11 19 9 37 -10 21 -22 21 -23 3 -36 -10 -8 -22
-14 -27 -14 -4 0 -8 -4 -8 -8 0 -4 19 -13 43 -19 50 -14 58 -9 102 66 18 30
37 51 48 51 19 0 23 25 6 36 -7 4 -9 23 -5 51 7 55 -10 65 -56 30 -18 -13 -41
-27 -50 -30 -13 -5 -18 -17 -18 -47 0 -38 -2 -40 -30 -40 -16 0 -30 3 -30 6 0
5 45 110 172 399 22 50 53 122 69 160 17 39 37 86 47 106 l17 35 20 -50 c11
-28 25 -50 30 -48 6 1 10 26 10 55 0 46 -2 52 -22 55 -13 2 -23 8 -23 13 0 5
20 55 46 111 25 57 61 140 81 185 20 45 44 84 52 86 28 7 412 4 416 -3z m1892
-3 c2 -4 -2 -19 -11 -32 -22 -34 -20 -45 9 -45 20 0 28 8 41 40 9 22 19 41 23
42 19 5 110 6 133 2 l27 -5 -71 -122 c-39 -67 -84 -141 -99 -165 -16 -24 -29
-45 -29 -48 0 -11 -74 -120 -86 -127 -8 -4 -14 -14 -14 -21 0 -18 -30 -42 -62
-50 -37 -8 -39 -40 -3 -34 14 3 25 3 25 0 0 -12 -63 -113 -75 -119 -7 -5 -15
-19 -17 -33 -2 -21 -8 -25 -34 -22 -25 2 -33 -2 -43 -24 -10 -22 -9 -28 5 -39
16 -11 13 -20 -35 -98 -29 -47 -64 -93 -77 -102 -13 -8 -24 -24 -24 -35 0 -11
-7 -35 -16 -54 -15 -31 -19 -33 -38 -23 -12 7 -24 16 -27 20 -8 11 -76 14 -85
4 -10 -10 23 -43 62 -62 19 -9 34 -19 34 -23 -1 -21 -31 -57 -47 -57 -14 0
-18 -8 -18 -32 -1 -47 -13 -54 -91 -51 -63 3 -69 5 -72 26 -2 12 -10 22 -18
22 -10 0 -14 12 -14 43 0 34 6 49 26 68 38 35 48 57 34 74 -9 11 -17 12 -31 4
-11 -5 -23 -8 -27 -5 -11 7 -2 86 10 86 6 0 8 8 6 18 -3 12 22 65 67 138 59
97 76 119 93 117 18 -2 21 1 16 25 -7 34 32 96 64 100 21 3 32 22 12 22 -22 0
-8 38 25 70 19 19 34 39 32 45 -6 15 20 63 59 112 19 23 34 46 34 51 0 6 8 24
18 41 16 29 20 31 80 31 75 0 85 13 54 69 -27 47 -20 103 17 142 23 25 32 28
89 26 35 -1 66 -5 69 -10z m-4017 -131 c0 -106 -3 -136 -15 -146 -8 -7 -15
-18 -15 -24 0 -6 -26 -19 -58 -29 -32 -9 -85 -37 -119 -61 -44 -33 -64 -41
-72 -33 -16 16 -26 0 -11 -18 10 -13 10 -19 -2 -33 -28 -33 -61 -97 -78 -152
-13 -40 -23 -56 -38 -58 -28 -4 -35 -40 -11 -65 10 -11 19 -30 19 -41 0 -32
-23 -86 -37 -86 -20 0 -15 -17 7 -23 30 -8 24 -21 -17 -42 -33 -16 -35 -19
-18 -24 52 -15 92 -72 80 -111 -3 -10 -1 -21 5 -25 5 -3 10 -14 10 -23 0 -9 7
-28 15 -42 8 -14 19 -37 26 -52 6 -16 15 -28 20 -28 5 0 9 -4 9 -10 0 -5 -6
-10 -12 -10 -7 0 -34 -23 -60 -51 l-47 -51 -27 29 c-24 25 -26 33 -20 82 6 48
5 52 -9 41 -11 -9 -18 -10 -28 -1 -8 6 -18 7 -22 3 -5 -4 -6 0 -2 10 7 21 -3
31 -19 17 -10 -8 -19 -7 -34 4 -12 8 -30 12 -41 10 -26 -7 -51 25 -38 49 7 13
22 18 52 18 43 0 67 13 67 37 0 7 -7 13 -15 13 -12 0 -13 4 -5 19 15 29 12 41
-9 41 -19 0 -36 -25 -32 -47 1 -7 -3 -13 -8 -13 -5 0 -22 -5 -38 -11 -41 -17
-126 -21 -135 -6 -4 7 -8 22 -8 35 0 19 4 22 20 17 16 -5 20 -2 20 16 0 12 -7
31 -16 41 -13 14 -14 21 -5 32 15 18 6 36 -16 36 -14 0 -15 13 -10 108 8 137
20 182 47 175 14 -4 20 0 20 12 0 13 -6 16 -21 12 -15 -4 -19 -2 -15 10 3 8 9
27 13 41 3 15 29 72 56 127 43 86 63 112 139 188 49 48 93 87 98 87 5 0 15 6
22 13 18 18 155 83 203 96 73 19 129 29 183 30 l52 1 0 -134z m219 122 c36 -6
70 -15 76 -20 5 -4 17 -8 26 -8 25 0 153 -67 225 -117 85 -59 198 -196 234
-284 20 -48 -1 -83 -60 -99 -30 -8 -50 -20 -53 -30 -4 -15 -143 -90 -165 -90
-14 0 -62 48 -62 62 0 8 -5 19 -12 26 -12 12 -10 13 14 16 9 1 12 33 13 116
l0 115 -55 3 c-46 2 -57 0 -68 -18 -11 -18 -10 -21 12 -30 27 -10 41 -40 31
-70 -8 -26 -19 -25 -43 5 -11 14 -25 25 -31 25 -6 0 -11 5 -11 10 0 6 -7 10
-15 10 -21 0 -19 10 15 63 31 50 38 95 18 115 -18 18 -25 15 -73 -29 -24 -22
-49 -38 -55 -34 -6 4 -10 47 -10 106 0 54 -4 99 -9 99 -17 0 -71 -61 -72 -81
-1 -10 -3 -23 -4 -29 -1 -5 -3 -33 -4 -62 0 -28 -4 -48 -7 -45 -6 6 -8 78 -5
230 l1 57 41 0 c23 0 71 -5 108 -12z m2423 -88 c32 -52 74 -126 93 -164 20
-39 47 -84 60 -102 14 -18 25 -37 25 -42 0 -5 7 -15 15 -22 8 -7 15 -24 15
-39 1 -31 21 -61 43 -61 14 0 27 -20 27 -41 0 -5 -17 -9 -38 -9 -21 0 -42 -4
-47 -8 -16 -14 -125 -36 -182 -37 -36 0 -54 -4 -58 -14 -4 -11 -11 -7 -24 15
-34 58 -34 59 25 56 58 -4 69 7 29 28 l-25 14 33 35 c19 20 37 44 41 54 3 11
15 21 26 24 12 3 19 11 17 17 -5 13 -57 9 -71 -5 -14 -13 -90 -11 -104 3 -9 9
-12 7 -12 -10 0 -13 12 -34 28 -48 26 -23 27 -24 8 -39 -22 -17 -56 -20 -56
-5 0 6 -9 19 -21 31 -12 12 -46 65 -77 118 -30 53 -63 108 -73 122 -10 14 -45
72 -78 128 l-60 101 192 -2 192 -3 57 -95z m-329 -199 c53 -93 97 -172 97
-176 0 -12 -49 -55 -63 -55 -7 0 -34 -11 -62 -24 -85 -42 -85 -41 -85 209 0
118 3 215 8 215 4 0 51 -76 105 -169z m1917 -111 c0 -215 -2 -258 -14 -254 -8
3 -16 -3 -19 -16 -5 -18 -12 -20 -64 -18 l-58 3 -3 -34 -3 -33 80 3 80 4 3
-103 c3 -97 -2 -126 -17 -102 -9 15 -55 12 -55 -4 0 -21 27 -39 50 -33 19 5
19 0 18 -168 -1 -164 -2 -174 -23 -199 -25 -29 -40 -33 -48 -12 -4 10 -20 13
-59 11 -29 -1 -65 -3 -80 -4 -22 -1 -28 -6 -28 -25 0 -30 13 -40 73 -56 26 -7
47 -17 47 -21 0 -5 27 -9 60 -9 l60 0 0 -98 c0 -65 -4 -102 -12 -110 -10 -10
-10 -15 1 -21 7 -5 11 -17 9 -27 -3 -17 -13 -19 -113 -18 -61 0 -119 1 -130 2
-11 1 -45 -1 -76 -4 -42 -4 -57 -2 -60 8 -2 7 -3 77 -1 156 3 141 4 143 28
152 26 10 45 46 36 68 -2 7 -17 16 -33 19 -26 5 -29 10 -29 44 0 28 4 39 15
39 8 0 15 -9 15 -21 0 -11 5 -17 10 -14 19 12 11 51 -14 64 -21 12 -24 20 -24
92 -1 43 1 79 4 79 3 0 15 -5 26 -11 14 -8 23 -8 31 0 8 8 5 11 -12 11 -13 0
-20 4 -16 11 4 6 -3 13 -15 16 -18 5 -21 12 -18 47 3 37 6 41 33 44 17 2 36 5
44 8 23 8 -2 25 -38 26 -27 1 -31 5 -32 30 -1 15 -2 34 -3 41 -1 12 13 13 51
2 18 -6 25 -2 33 19 15 40 50 49 73 20 20 -26 56 -31 75 -12 18 18 15 25 -16
36 -20 7 -32 22 -45 60 -26 70 -47 75 -97 21 -22 -24 -42 -40 -46 -37 -6 7 26
71 61 123 12 17 30 47 41 68 10 21 26 46 34 55 8 9 28 42 44 72 48 89 51 95
56 100 3 3 18 30 34 60 31 58 65 110 72 110 2 0 4 -117 4 -260z m-1882 -176
c7 -12 19 -15 41 -12 21 3 31 0 31 -9 0 -16 37 -17 42 -1 6 18 37 2 47 -24 5
-13 7 -26 5 -29 -2 -4 -34 -10 -71 -14 -38 -4 -81 -13 -98 -20 -16 -7 -46 -16
-65 -18 -19 -3 -45 -8 -57 -12 -22 -7 -23 -4 -23 38 0 40 2 45 20 40 30 -8 70
5 70 23 0 9 9 18 19 21 12 3 17 11 14 19 -7 20 14 18 25 -2z m630 -74 c7 -12
10 -31 6 -47 -6 -21 -4 -25 9 -20 8 3 21 -2 29 -11 21 -25 98 -159 98 -170 0
-6 4 -12 8 -14 4 -1 18 -19 30 -39 17 -28 22 -52 22 -103 0 -59 -2 -66 -20
-66 -22 0 -28 -38 -9 -57 8 -8 5 -15 -11 -26 -26 -18 -18 -39 13 -35 35 5 35
-37 0 -54 -38 -18 -42 -44 -6 -43 27 0 28 -2 31 -53 3 -47 1 -54 -17 -59 -27
-7 -27 -23 -1 -23 29 0 27 -42 -4 -56 -22 -10 -26 -6 -76 73 -51 83 -74 133
-53 120 14 -9 65 32 57 44 -3 6 -26 9 -51 7 -54 -2 -64 7 -132 129 -24 43 -54
94 -66 113 -117 185 -145 231 -145 238 0 4 -16 30 -34 57 -36 52 -34 81 4 57
24 -15 66 -16 75 -2 3 6 24 10 45 10 21 0 42 5 45 10 3 6 15 10 26 10 11 0 27
7 35 15 23 22 77 19 92 -5z m-465 -62 c11 2 17 -3 17 -16 0 -11 11 -27 24 -36
l25 -16 1 -405 c1 -434 -2 -455 -50 -470 -12 -4 -32 -25 -46 -47 l-26 -40 -71
6 c-72 7 -123 28 -112 46 4 6 22 10 41 10 27 0 37 5 46 25 6 14 9 27 6 30 -3
3 -36 8 -74 12 -72 7 -101 22 -82 41 8 8 8 18 0 37 -16 35 -15 37 7 24 10 -7
26 -9 35 -6 22 9 8 37 -28 57 l-26 13 0 337 c0 277 3 340 14 349 23 20 110 19
130 -1 10 -10 24 -18 32 -18 8 0 14 -7 14 -15 0 -17 16 -20 25 -5 9 15 -17 49
-42 52 -46 6 -21 23 32 22 46 -1 54 2 59 20 6 18 8 19 19 6 6 -9 20 -14 30
-12z m-2145 -190 c-2 -8 9 -14 25 -16 25 -3 27 -6 27 -53 0 -47 -1 -49 -20
-39 -15 8 -19 17 -15 31 7 22 5 23 -29 8 -18 -8 -29 -9 -38 -2 -7 6 -28 14
-45 18 l-33 7 18 -31 c9 -17 22 -31 29 -31 6 0 14 -6 17 -12 5 -10 7 -10 12 0
3 6 16 12 28 12 12 0 34 -6 49 -12 25 -12 27 -18 28 -73 1 -80 9 -104 41 -128
22 -17 30 -18 43 -7 22 18 19 27 -12 38 -26 9 -26 10 -8 17 11 4 35 23 53 42
21 22 38 33 48 29 14 -5 13 -11 -6 -41 -18 -29 -20 -38 -10 -50 7 -8 16 -15
20 -15 11 0 50 100 53 134 2 25 -1 28 -34 30 -19 2 -50 10 -68 19 -35 18 -51
15 -51 -9 0 -8 -7 -14 -15 -14 -22 0 -19 41 4 47 11 3 22 12 25 20 4 10 1 13
-13 8 -14 -4 -20 1 -24 22 -3 14 0 35 6 45 11 16 28 18 184 18 147 0 173 -2
173 -15 0 -8 -9 -15 -20 -15 -32 0 -23 -15 19 -33 38 -17 39 -19 34 -55 -3
-20 -12 -45 -21 -54 -8 -10 -12 -25 -8 -35 10 -24 8 -28 -11 -28 -9 0 -18 -6
-20 -12 -3 -7 2 -13 11 -13 17 0 22 -35 7 -44 -4 -3 -11 -19 -15 -37 -5 -24
-10 -29 -24 -24 -11 3 -24 -1 -32 -10 -10 -12 -9 -16 9 -23 20 -7 19 -11 -31
-92 -29 -47 -68 -101 -87 -121 -41 -41 -170 -134 -209 -152 -15 -6 -29 -14
-32 -17 -12 -12 -140 -53 -190 -61 -30 -4 -71 -11 -91 -14 -32 -6 -37 -4 -44
16 -9 28 -9 33 0 82 5 33 9 37 35 37 34 0 37 7 15 36 -22 29 -18 69 10 95 27
26 32 45 13 52 -10 4 -9 8 2 16 9 6 18 7 26 0 8 -7 15 -6 19 1 4 7 33 28 64
47 31 20 67 49 80 65 13 15 30 28 38 28 8 0 12 4 9 9 -3 4 4 17 17 27 16 14
18 14 9 2 -15 -19 3 -37 20 -20 18 18 -17 62 -44 56 -13 -2 -53 -7 -89 -10
-62 -6 -66 -5 -72 15 -3 13 -13 21 -27 21 -16 0 -20 -5 -16 -17 4 -14 0 -18
-19 -19 -23 -2 -24 0 -13 15 7 9 21 23 30 32 12 10 18 31 18 57 0 31 5 43 25
56 29 19 25 36 -8 36 -31 0 -62 -52 -47 -79 13 -26 13 -31 -4 -31 -14 0 -18
-8 -30 -61 -5 -22 -10 -25 -31 -21 -25 4 -25 6 -25 103 0 59 4 99 10 99 6 0
10 11 10 25 0 14 -4 25 -10 25 -11 0 -14 43 -3 53 3 4 69 7 145 7 105 0 137
-3 136 -12z m-1061 -268 c1 -14 -4 -20 -18 -20 -24 0 -24 -9 -1 -26 26 -20 44
-17 37 6 -5 17 -2 20 25 20 23 0 33 -5 37 -20 6 -23 23 -27 23 -5 0 16 45 22
54 7 2 -4 0 -29 -6 -55 -7 -34 -13 -45 -21 -39 -7 6 -28 12 -47 15 -19 2 -53
10 -76 16 -35 9 -43 16 -54 51 -7 22 -11 41 -9 43 2 1 13 7 24 14 28 16 31 16
32 -7z m413 -169 c0 -5 -9 -11 -20 -14 -11 -3 -20 -10 -20 -16 0 -19 23 -12
51 15 l28 26 40 -28 c28 -21 39 -34 35 -46 -6 -20 24 -26 42 -8 12 12 71 -3
64 -16 -3 -5 -17 -8 -32 -6 -19 2 -28 -2 -33 -17 -7 -25 -25 -28 -25 -5 0 11
-8 14 -27 12 -36 -4 -46 -46 -14 -55 12 -3 21 -9 21 -14 0 -14 37 -11 52 4 7
8 18 12 24 10 7 -2 18 3 26 11 25 25 52 13 54 -22 1 -18 -3 -29 -8 -26 -5 3
-17 2 -26 -2 -9 -4 -24 -8 -32 -8 -9 -1 -15 -11 -16 -27 -2 -42 -13 -52 -50
-44 -36 6 -44 -4 -19 -25 11 -9 15 -9 15 -1 0 22 17 2 23 -26 3 -16 9 -36 12
-45 6 -15 1 -18 -30 -18 -46 0 -76 16 -69 35 4 8 12 15 20 15 18 0 18 27 0 37
-8 4 -14 17 -13 28 3 30 -39 33 -48 4 -5 -14 -3 -25 4 -27 14 -5 15 -42 0 -42
-6 0 -18 18 -26 40 -11 27 -22 40 -35 40 -19 0 -26 -34 -8 -45 17 -11 11 -35
-9 -35 -24 0 -43 23 -35 43 4 12 -1 14 -30 12 -29 -3 -43 3 -78 34 -41 37 -42
39 -20 45 28 9 74 54 62 61 -4 3 -11 -1 -14 -7 -3 -7 -3 -3 0 10 8 32 -2 28
-47 -20 l-39 -42 -20 24 c-11 13 -20 28 -20 34 0 6 -10 16 -22 21 -20 9 -23
17 -21 57 2 34 -2 48 -13 52 -8 3 -12 11 -9 16 12 19 114 -65 115 -93 0 -21
25 2 25 23 0 34 15 34 54 0 18 -17 37 -30 41 -30 4 0 12 18 19 40 9 29 17 40
31 40 11 0 20 6 20 14 0 8 8 16 18 19 20 4 32 0 32 -12z"/>
<path d="M8736 11292 c-3 -3 -6 -16 -6 -28 0 -15 -15 -35 -42 -56 -64 -51
-108 -95 -108 -108 0 -12 42 -7 90 12 38 15 82 13 130 -6 42 -17 42 -17 65 8
13 14 42 33 64 42 53 21 52 34 -3 34 -45 0 -86 24 -128 76 -18 22 -52 36 -62
26z"/>
<path d="M8706 10851 c-15 -17 -16 -27 -7 -77 8 -40 8 -69 0 -97 -6 -21 -9
-40 -7 -41 2 -1 16 -10 31 -20 29 -18 29 -18 8 -32 -24 -17 -26 -41 -9 -81 24
-53 34 -56 67 -24 42 41 40 53 -6 45 -31 -5 -36 -4 -25 7 6 7 12 23 12 36 0
24 14 31 25 12 5 -7 14 -4 26 7 16 14 19 31 19 96 0 61 -3 78 -15 78 -7 0 -18
-8 -24 -17 -5 -10 -13 -14 -18 -9 -4 5 -2 11 5 13 6 3 12 16 12 29 0 19 -5 24
-25 24 -28 0 -30 7 -10 34 8 10 12 23 9 27 -9 16 -51 9 -68 -10z"/>
<path d="M8356 10339 c-8 -39 -8 -97 0 -127 6 -20 11 -22 68 -17 67 5 124 -13
144 -45 9 -15 6 -28 -15 -67 -14 -26 -32 -59 -39 -73 -8 -14 -14 -40 -14 -57
0 -28 3 -33 25 -33 15 0 31 -9 41 -25 22 -33 79 -36 87 -3 7 25 -16 73 -43 91
-51 31 -3 37 59 6 42 -20 71 -20 71 0 0 5 -9 13 -21 16 -17 6 -20 14 -19 48 1
23 1 57 1 74 l-1 33 -45 -7 c-31 -4 -45 -2 -45 6 0 6 -6 11 -14 11 -23 0 -84
63 -92 95 -4 16 -2 41 3 56 l11 28 -50 -6 c-30 -4 -53 -2 -56 4 -4 6 -17 13
-28 17 -18 5 -22 2 -28 -25z"/>
<path d="M6557 10340 c-59 -5 -122 -13 -139 -19 -17 -6 -45 -11 -63 -11 -17 0
-35 -3 -39 -7 -4 -4 -37 -15 -74 -24 -37 -9 -83 -22 -102 -29 -19 -7 -44 -16
-55 -20 -11 -4 -51 -21 -88 -39 -47 -21 -76 -29 -93 -25 -20 5 -26 2 -31 -14
-4 -18 -71 -72 -88 -72 -15 0 -125 -85 -125 -96 0 -7 9 -16 20 -19 11 -3 20
-10 20 -14 0 -5 15 -14 33 -21 86 -33 107 -45 113 -62 4 -14 16 -18 49 -18 23
0 56 -7 71 -15 16 -8 37 -15 46 -15 9 0 20 -4 23 -10 3 -5 19 -10 35 -10 16 0
32 -4 35 -10 3 -5 23 -10 44 -10 20 0 42 -5 47 -10 6 -6 48 -15 94 -21 46 -5
87 -12 92 -15 4 -3 103 -5 220 -5 204 0 367 16 423 41 11 5 34 11 50 13 47 7
147 37 179 53 16 7 35 14 43 14 7 0 21 4 31 9 9 5 62 31 117 57 113 54 235
128 235 144 0 6 -8 13 -17 17 -10 3 -31 15 -46 26 -35 24 -223 117 -237 117
-6 0 -18 4 -28 10 -28 16 -173 60 -198 60 -12 0 -26 5 -29 10 -3 6 -19 10 -35
10 -16 0 -55 6 -87 14 -74 18 -305 26 -446 16z"/>
<path d="M7868 10175 c-4 -4 -2 -18 3 -32 5 -14 7 -34 3 -45 -4 -14 8 -33 44
-72 60 -63 99 -137 121 -226 14 -55 20 -65 40 -68 29 -4 50 -24 81 -75 20 -34
65 -65 77 -53 6 6 -26 65 -58 106 -30 39 -46 80 -30 80 16 0 31 35 24 58 -4
17 -13 22 -39 22 -19 0 -34 -4 -34 -10 0 -5 -7 -10 -15 -10 -9 0 -15 6 -14 13
3 27 -3 38 -44 79 -31 31 -48 59 -60 99 -17 56 -85 148 -99 134z"/>
<path d="M7017 9443 c-11 -10 -8 -103 3 -103 6 0 10 -5 10 -12 0 -7 12 -24 26
-40 21 -21 31 -25 45 -17 21 11 25 49 8 81 -13 23 -5 35 13 20 19 -15 47 8 54
47 l7 31 -80 0 c-44 0 -83 -3 -86 -7z"/>
<path d="M6803 9383 c-30 -56 -19 -87 32 -91 51 -4 65 -17 39 -37 -13 -10 -46
-14 -116 -15 l-97 0 -3 38 -3 37 -56 -3 c-41 -3 -59 0 -68 12 -32 38 -44 -5
-14 -50 16 -25 16 -25 -9 -19 -22 6 -27 2 -41 -37 -14 -35 -28 -51 -74 -78
-131 -79 -249 -238 -288 -386 -13 -51 -42 -93 -65 -94 -9 0 -30 -63 -30 -86 1
-28 23 -53 46 -51 14 2 20 -5 22 -28 5 -51 43 -167 74 -230 49 -98 124 -184
214 -246 60 -41 134 -79 155 -79 10 0 20 -4 23 -9 15 -24 253 -39 336 -21 57
13 66 15 140 46 150 63 291 205 349 351 10 26 27 49 42 57 20 10 24 18 21 51
-9 127 -8 130 16 133 30 5 28 22 -3 22 -23 0 -25 3 -25 52 0 51 -4 67 -42 181
-18 55 -17 97 3 97 5 0 9 5 9 10 0 6 -15 10 -33 10 -41 0 -63 29 -42 56 20 26
18 54 -2 55 -50 2 -80 13 -117 43 -62 50 -146 102 -189 117 -20 7 -49 26 -64
41 -24 25 -25 28 -7 28 17 0 19 8 21 62 1 35 -1 66 -4 71 -2 4 -16 -1 -31 -11
-15 -11 -40 -21 -55 -24 -26 -5 -28 -3 -25 25 4 43 -15 43 -39 0z"/>
<path d="M4644 9245 c-11 -28 6 -64 44 -91 78 -58 91 -74 85 -107 -3 -16 -2
-28 3 -26 53 25 64 34 64 56 0 12 -4 23 -10 23 -18 0 -50 44 -44 62 4 15 0 18
-25 18 -25 0 -36 8 -56 40 -26 41 -51 51 -61 25z"/>
<path d="M8420 9211 c0 -5 26 -49 58 -97 72 -111 82 -134 82 -188 0 -35 5 -47
24 -59 13 -9 43 -44 66 -79 48 -72 96 -128 110 -128 6 0 10 11 10 25 0 14 -3
25 -7 25 -5 0 -13 10 -19 23 -6 12 -24 44 -39 72 -19 35 -25 59 -22 81 5 27 0
36 -38 68 -43 35 -70 91 -59 120 7 18 -121 146 -146 146 -11 0 -20 -4 -20 -9z"/>
<path d="M8308 8903 c-12 -3 -18 -14 -18 -34 0 -24 8 -35 48 -59 59 -36 82
-59 82 -79 -1 -21 -81 -61 -109 -54 -16 4 -21 1 -21 -15 0 -14 -21 -36 -67
-69 -121 -85 -246 -200 -342 -313 -25 -30 -52 -62 -60 -70 -8 -8 -46 -62 -84
-120 -139 -209 -254 -492 -287 -710 -5 -30 -14 -84 -19 -120 -13 -83 -14 -320
-1 -320 13 0 181 89 201 106 8 8 19 14 24 14 4 0 53 32 109 72 113 81 302 265
380 372 151 205 261 445 306 666 11 52 24 115 30 140 6 25 13 92 15 150 4 79
8 106 20 113 19 10 20 31 1 24 -11 -4 -15 7 -18 50 -3 51 -1 56 24 71 45 27
42 39 -14 44 -27 3 -57 13 -66 22 -9 9 -12 16 -5 16 7 0 15 -5 18 -10 11 -19
22 -1 17 27 -11 59 -97 104 -164 86z"/>
<path d="M7665 8825 c-18 -14 -43 -24 -62 -25 -25 0 -33 -4 -33 -17 1 -22 23
-53 39 -53 12 0 62 29 71 41 3 4 14 9 24 11 26 4 32 -19 7 -27 -12 -3 -21 -10
-21 -15 0 -4 -9 -10 -21 -13 -13 -4 -19 -12 -17 -23 4 -24 23 -28 41 -9 18 17
53 20 62 5 4 -6 24 -19 46 -31 32 -16 44 -18 55 -8 8 6 14 14 14 18 0 3 -23
30 -50 59 -28 30 -50 61 -50 71 0 45 -58 55 -105 16z"/>
<path d="M4972 8818 c-5 -7 -15 -65 -21 -128 -11 -126 4 -359 34 -495 25 -118
94 -312 149 -420 98 -193 175 -296 347 -467 87 -87 164 -158 170 -158 6 0 29
-16 52 -35 22 -19 45 -35 50 -35 5 0 21 -8 35 -19 28 -19 160 -91 168 -91 3 0
4 77 2 170 -2 94 -2 170 0 170 2 0 12 -5 23 -11 15 -7 24 -7 35 2 21 17 17 34
-11 49 -19 10 -27 10 -39 1 -12 -10 -16 -5 -21 36 -16 119 -93 404 -116 428
-5 5 -9 15 -9 22 0 24 -97 214 -156 308 -32 50 -82 122 -112 160 -63 80 -247
266 -307 310 -22 17 -42 33 -45 36 -10 11 -191 129 -199 129 -4 0 -6 11 -3 25
5 27 -9 33 -26 13z"/>
<path d="M6410 6546 c0 -8 5 -18 10 -21 6 -3 10 -19 10 -34 0 -19 8 -34 24
-45 14 -8 40 -31 59 -51 39 -40 80 -47 97 -15 10 19 6 24 -14 21 -4 -1 -16 1
-26 4 -15 5 -17 13 -13 40 4 28 2 35 -10 35 -9 0 -19 -4 -22 -10 -3 -5 -13
-10 -22 -10 -15 0 -14 19 4 66 5 14 3 16 -11 11 -9 -4 -30 0 -46 8 -36 19 -40
19 -40 1z"/>
<path d="M5970 6095 c-7 -8 -20 -15 -29 -15 -20 0 -41 -19 -41 -37 0 -7 12
-19 28 -26 34 -15 43 -27 36 -49 -4 -13 0 -18 13 -19 90 -4 86 -3 87 -31 2
-36 33 -68 67 -68 38 0 46 17 15 32 -22 9 -26 18 -26 55 0 39 -5 49 -62 108
-34 36 -65 65 -69 65 -4 0 -12 -7 -19 -15z"/>
<path d="M7633 5624 c-4 -10 0 -22 10 -29 12 -9 1 -11 -55 -11 -56 1 -73 -2
-82 -16 -17 -28 6 -44 36 -24 28 18 66 11 124 -23 l35 -21 11 24 c6 14 19 27
29 29 30 8 34 35 9 63 -29 30 -106 35 -117 8z"/>
<path d="M3450 3770 c0 -8 11 -11 30 -8 35 5 47 -6 30 -27 -9 -11 -17 -12 -31
-5 -16 9 -22 4 -39 -30 -11 -22 -24 -40 -28 -40 -4 0 -7 -15 -7 -32 0 -30 3
-33 31 -36 41 -4 81 34 89 86 11 63 16 72 36 72 17 0 29 19 12 20 -5 1 -34 3
-65 6 -42 4 -58 2 -58 -6z"/>
<path d="M10765 3926 c7 -44 -7 -128 -28 -173 -16 -34 -2 -56 31 -48 33 8 52
23 52 41 0 14 4 25 29 72 10 19 7 32 -20 87 -23 47 -36 65 -51 65 -17 0 -19
-5 -13 -44z"/>
<path d="M4391 1333 c-9 -10 -22 -12 -40 -8 -25 6 -25 6 -6 -8 16 -12 17 -17
6 -30 -10 -13 -17 -14 -37 -5 -29 13 -44 3 -21 -15 8 -6 17 -22 19 -34 3 -22
4 -22 32 -8 19 10 32 12 36 5 6 -9 48 -7 118 6 25 5 32 11 32 30 0 20 -5 24
-29 24 -16 0 -36 6 -43 13 -48 44 -52 46 -67 30z"/>
<path d="M8024 1155 c-37 -17 -104 -91 -104 -116 0 -10 -3 -24 -6 -33 -4 -10
6 -27 24 -46 39 -39 62 -39 62 -1 0 27 4 30 51 42 42 11 49 16 45 32 -3 12 5
30 20 46 31 33 30 54 -1 75 -29 19 -49 19 -91 1z"/>
</g>
</svg>
